<svg xmlns="http://www.w3.org/2000/svg" xmlns:xlink="http://www.w3.org/1999/xlink" width="300" zoomAndPan="magnify" viewBox="0 0 224.87999 74.999997" height="100" preserveAspectRatio="xMidYMid meet" version="1.2"><defs><clipPath id="f74f922237"><path d="M 0 0.0195312 L 224.761719 0.0195312 L 224.761719 74.980469 L 0 74.980469 Z M 0 0.0195312 "/></clipPath><clipPath id="c1f01d451c"><rect x="0" width="87" y="0" height="37"/></clipPath><clipPath id="2c4de8d74f"><path d="M 4.25 16.414062 L 11.746094 16.414062 L 11.746094 21 L 4.25 21 Z M 4.25 16.414062 "/></clipPath><clipPath id="c86ac24fe2"><path d="M 5 17 L 11 17 L 11 23.910156 L 5 23.910156 Z M 5 17 "/></clipPath><clipPath id="4719bfdf56"><rect x="0" width="92" y="0" height="37"/></clipPath></defs><g id="47bb8763aa"><g clip-rule="nonzero" clip-path="url(#f74f922237)"><path style=" stroke:none;fill-rule:nonzero;fill:#ffffff;fill-opacity:1;" d="M 0 0.0195312 L 224.878906 0.0195312 L 224.878906 74.980469 L 0 74.980469 Z M 0 0.0195312 "/><path style=" stroke:none;fill-rule:nonzero;fill:#ffffff;fill-opacity:1;" d="M 0 0.0195312 L 224.878906 0.0195312 L 224.878906 74.980469 L 0 74.980469 Z M 0 0.0195312 "/></g><g transform="matrix(1,0,0,1,41,19)"><g clip-path="url(#c1f01d451c)"><g style="fill:#000000;fill-opacity:1;"><g transform="translate(0.772154, 28.553944)"><path style="stroke:none" d="M 17.3125 -25.09375 L 17.3125 -21.765625 L 5.65625 -21.765625 L 5.65625 -14.9375 L 16.03125 -14.9375 L 16.03125 -11.5 L 5.65625 -11.5 L 5.65625 -3.4375 L 17.3125 -3.4375 L 17.3125 0 L 1.984375 0 L 1.984375 -25.09375 Z M 17.3125 -25.09375 "/></g></g><g style="fill:#000000;fill-opacity:1;"><g transform="translate(20.205768, 28.553944)"><path style="stroke:none" d="M 12 0 L 7.4375 0 L 0.421875 -16.953125 L 4.140625 -16.953125 L 9.734375 -3.46875 L 15.328125 -16.953125 L 19.046875 -16.953125 Z M 12 0 "/></g></g><g style="fill:#000000;fill-opacity:1;"><g transform="translate(39.745581, 28.553944)"><path style="stroke:none" d="M 18.046875 -16.953125 L 18.046875 0 L 15.140625 0 L 14.609375 -1.953125 C 14.023438 -1.171875 13.269531 -0.578125 12.34375 -0.171875 C 11.425781 0.222656 10.5 0.421875 9.5625 0.421875 C 8.375 0.421875 7.265625 0.191406 6.234375 -0.265625 C 5.210938 -0.722656 4.316406 -1.351562 3.546875 -2.15625 C 2.785156 -2.957031 2.179688 -3.898438 1.734375 -4.984375 C 1.285156 -6.078125 1.0625 -7.234375 1.0625 -8.453125 C 1.0625 -9.679688 1.285156 -10.835938 1.734375 -11.921875 C 2.179688 -13.003906 2.785156 -13.945312 3.546875 -14.75 C 4.316406 -15.5625 5.210938 -16.195312 6.234375 -16.65625 C 7.265625 -17.113281 8.375 -17.34375 9.5625 -17.34375 C 10.5 -17.34375 11.40625 -17.160156 12.28125 -16.796875 C 13.15625 -16.429688 13.929688 -15.859375 14.609375 -15.078125 L 15.140625 -16.953125 Z M 9.5625 -2.625 C 10.238281 -2.625 10.882812 -2.773438 11.5 -3.078125 C 12.113281 -3.378906 12.644531 -3.796875 13.09375 -4.328125 C 13.539062 -4.859375 13.894531 -5.476562 14.15625 -6.1875 C 14.414062 -6.894531 14.546875 -7.648438 14.546875 -8.453125 C 14.546875 -9.253906 14.414062 -10.007812 14.15625 -10.71875 C 13.894531 -11.425781 13.539062 -12.046875 13.09375 -12.578125 C 12.644531 -13.109375 12.113281 -13.523438 11.5 -13.828125 C 10.882812 -14.140625 10.238281 -14.296875 9.5625 -14.296875 C 8.875 -14.296875 8.222656 -14.140625 7.609375 -13.828125 C 6.992188 -13.523438 6.460938 -13.109375 6.015625 -12.578125 C 5.566406 -12.046875 5.210938 -11.425781 4.953125 -10.71875 C 4.691406 -10.007812 4.5625 -9.253906 4.5625 -8.453125 C 4.5625 -7.648438 4.691406 -6.894531 4.953125 -6.1875 C 5.210938 -5.476562 5.566406 -4.859375 6.015625 -4.328125 C 6.460938 -3.796875 6.992188 -3.378906 7.609375 -3.078125 C 8.222656 -2.773438 8.875 -2.625 9.5625 -2.625 Z M 9.5625 -2.625 "/></g></g><g style="fill:#000000;fill-opacity:1;"><g transform="translate(59.320793, 28.553944)"><path style="stroke:none" d="M 5.59375 -25.828125 L 5.59375 0 L 2.15625 0 L 2.15625 -25.828125 Z M 5.59375 -25.828125 "/></g></g><g style="fill:#000000;fill-opacity:1;"><g transform="translate(66.825214, 28.553944)"><path style="stroke:none" d="M 13.453125 -1.515625 C 12.859375 -0.972656 12.164062 -0.523438 11.375 -0.171875 C 10.582031 0.179688 9.703125 0.359375 8.734375 0.359375 C 8.128906 0.359375 7.4375 0.269531 6.65625 0.09375 C 5.875 -0.0820312 5.144531 -0.429688 4.46875 -0.953125 C 3.800781 -1.472656 3.238281 -2.1875 2.78125 -3.09375 C 2.320312 -4 2.09375 -5.1875 2.09375 -6.65625 L 2.09375 -16.953125 L 5.34375 -16.953125 L 5.34375 -6.65625 C 5.34375 -5.925781 5.453125 -5.304688 5.671875 -4.796875 C 5.898438 -4.285156 6.195312 -3.875 6.5625 -3.5625 C 6.925781 -3.257812 7.34375 -3.035156 7.8125 -2.890625 C 8.289062 -2.753906 8.773438 -2.6875 9.265625 -2.6875 C 9.648438 -2.6875 10.082031 -2.753906 10.5625 -2.890625 C 11.050781 -3.035156 11.503906 -3.265625 11.921875 -3.578125 C 12.347656 -3.898438 12.707031 -4.3125 13 -4.8125 C 13.300781 -5.3125 13.453125 -5.914062 13.453125 -6.625 L 13.453125 -16.953125 L 16.875 -16.953125 L 16.875 0 L 14.15625 0 Z M 13.453125 -1.515625 "/></g></g></g></g><g clip-rule="nonzero" clip-path="url(#2c4de8d74f)"><path style=" stroke:none;fill-rule:nonzero;fill:#0f172a;fill-opacity:1;" d="M 11.441406 19.78125 L 8.167969 16.507812 C 8.074219 16.410156 7.921875 16.410156 7.824219 16.507812 L 6.714844 17.617188 L 6.714844 17.421875 C 6.714844 17.289062 6.605469 17.179688 6.472656 17.179688 L 5.742188 17.179688 C 5.609375 17.179688 5.5 17.289062 5.5 17.421875 L 5.5 18.832031 L 4.550781 19.78125 C 4.457031 19.875 4.457031 20.03125 4.550781 20.125 C 4.644531 20.21875 4.800781 20.21875 4.894531 20.125 L 7.996094 17.023438 L 11.097656 20.125 C 11.148438 20.171875 11.207031 20.195312 11.269531 20.195312 C 11.332031 20.195312 11.394531 20.171875 11.441406 20.125 C 11.539062 20.03125 11.539062 19.875 11.441406 19.78125 Z M 5.984375 17.664062 L 6.230469 17.664062 L 6.230469 18.101562 L 5.984375 18.347656 Z M 5.984375 17.664062 "/></g><g clip-rule="nonzero" clip-path="url(#c86ac24fe2)"><path style=" stroke:none;fill-rule:nonzero;fill:#0f172a;fill-opacity:1;" d="M 8.167969 17.703125 C 8.074219 17.609375 7.921875 17.609375 7.824219 17.703125 L 5.125 20.402344 C 5.082031 20.449219 5.054688 20.511719 5.054688 20.574219 L 5.054688 23.664062 C 5.054688 23.800781 5.164062 23.910156 5.296875 23.910156 L 7.277344 23.910156 C 7.410156 23.910156 7.519531 23.800781 7.519531 23.664062 L 7.519531 22.160156 L 8.476562 22.160156 L 8.476562 23.664062 C 8.476562 23.800781 8.582031 23.910156 8.71875 23.910156 L 10.695312 23.910156 C 10.832031 23.910156 10.9375 23.800781 10.9375 23.664062 L 10.9375 20.574219 C 10.9375 20.511719 10.914062 20.449219 10.867188 20.402344 Z M 10.453125 23.421875 L 8.960938 23.421875 L 8.960938 21.917969 C 8.960938 21.785156 8.851562 21.675781 8.71875 21.675781 L 7.277344 21.675781 C 7.140625 21.675781 7.03125 21.785156 7.03125 21.917969 L 7.03125 23.421875 L 5.539062 23.421875 L 5.539062 20.675781 L 7.996094 18.21875 L 10.453125 20.675781 Z M 10.453125 23.421875 "/></g><g transform="matrix(1,0,0,1,130,19)"><g clip-path="url(#4719bfdf56)"><g style="fill:#256ccb;fill-opacity:0.4;"><g transform="translate(1.417518, 29.2736)"><path style="stroke:none" d="M 13.8125 -3.078125 C 15.175781 -3.078125 16.441406 -3.40625 17.609375 -4.0625 C 18.785156 -4.726562 19.773438 -5.601562 20.578125 -6.6875 L 23.15625 -4.21875 C 22.019531 -2.863281 20.644531 -1.757812 19.03125 -0.90625 C 17.414062 -0.0625 15.675781 0.359375 13.8125 0.359375 C 12.113281 0.359375 10.507812 0.015625 9 -0.671875 C 7.488281 -1.359375 6.175781 -2.285156 5.0625 -3.453125 C 3.957031 -4.617188 3.078125 -5.984375 2.421875 -7.546875 C 1.773438 -9.117188 1.453125 -10.78125 1.453125 -12.53125 C 1.453125 -14.300781 1.773438 -15.960938 2.421875 -17.515625 C 3.078125 -19.078125 3.957031 -20.441406 5.0625 -21.609375 C 6.175781 -22.785156 7.488281 -23.710938 9 -24.390625 C 10.507812 -25.078125 12.113281 -25.421875 13.8125 -25.421875 C 15.394531 -25.421875 16.882812 -25.109375 18.28125 -24.484375 C 19.6875 -23.859375 20.945312 -23.035156 22.0625 -22.015625 L 19.859375 -19.21875 C 19.078125 -20.050781 18.164062 -20.734375 17.125 -21.265625 C 16.09375 -21.796875 14.988281 -22.0625 13.8125 -22.0625 C 12.601562 -22.0625 11.472656 -21.804688 10.421875 -21.296875 C 9.378906 -20.785156 8.46875 -20.09375 7.6875 -19.21875 C 6.90625 -18.351562 6.285156 -17.347656 5.828125 -16.203125 C 5.367188 -15.054688 5.140625 -13.832031 5.140625 -12.53125 C 5.140625 -11.238281 5.367188 -10.019531 5.828125 -8.875 C 6.285156 -7.726562 6.90625 -6.722656 7.6875 -5.859375 C 8.46875 -4.992188 9.378906 -4.3125 10.421875 -3.8125 C 11.472656 -3.320312 12.601562 -3.078125 13.8125 -3.078125 Z M 13.8125 -3.078125 "/></g></g><g style="fill:#256ccb;fill-opacity:0.4;"><g transform="translate(25.70012, 29.2736)"><path style="stroke:none" d="M 5.59375 -25.84375 L 5.59375 0 L 2.15625 0 L 2.15625 -25.84375 Z M 5.59375 -25.84375 "/></g></g><g style="fill:#256ccb;fill-opacity:0.4;"><g transform="translate(33.204367, 29.2736)"><path style="stroke:none" d="M 9.421875 0.421875 C 8.234375 0.421875 7.125 0.191406 6.09375 -0.265625 C 5.070312 -0.722656 4.175781 -1.351562 3.40625 -2.15625 C 2.644531 -2.957031 2.039062 -3.898438 1.59375 -4.984375 C 1.144531 -6.078125 0.921875 -7.238281 0.921875 -8.46875 C 0.921875 -9.6875 1.144531 -10.835938 1.59375 -11.921875 C 2.039062 -13.015625 2.644531 -13.960938 3.40625 -14.765625 C 4.175781 -15.566406 5.070312 -16.195312 6.09375 -16.65625 C 7.125 -17.113281 8.234375 -17.34375 9.421875 -17.34375 C 10.578125 -17.34375 11.671875 -17.113281 12.703125 -16.65625 C 13.742188 -16.195312 14.644531 -15.566406 15.40625 -14.765625 C 16.175781 -13.960938 16.785156 -13.015625 17.234375 -11.921875 C 17.691406 -10.835938 17.921875 -9.6875 17.921875 -8.46875 C 17.921875 -7.238281 17.691406 -6.078125 17.234375 -4.984375 C 16.785156 -3.898438 16.175781 -2.957031 15.40625 -2.15625 C 14.644531 -1.351562 13.742188 -0.722656 12.703125 -0.265625 C 11.671875 0.191406 10.578125 0.421875 9.421875 0.421875 Z M 9.421875 -14.265625 C 8.734375 -14.265625 8.082031 -14.109375 7.46875 -13.796875 C 6.851562 -13.492188 6.316406 -13.082031 5.859375 -12.5625 C 5.398438 -12.050781 5.039062 -11.441406 4.78125 -10.734375 C 4.519531 -10.023438 4.390625 -9.269531 4.390625 -8.46875 C 4.390625 -7.664062 4.519531 -6.910156 4.78125 -6.203125 C 5.039062 -5.492188 5.398438 -4.875 5.859375 -4.34375 C 6.316406 -3.8125 6.851562 -3.390625 7.46875 -3.078125 C 8.082031 -2.773438 8.734375 -2.625 9.421875 -2.625 C 10.097656 -2.625 10.742188 -2.773438 11.359375 -3.078125 C 11.972656 -3.390625 12.503906 -3.8125 12.953125 -4.34375 C 13.398438 -4.875 13.753906 -5.492188 14.015625 -6.203125 C 14.273438 -6.910156 14.40625 -7.664062 14.40625 -8.46875 C 14.40625 -9.269531 14.273438 -10.023438 14.015625 -10.734375 C 13.753906 -11.441406 13.398438 -12.050781 12.953125 -12.5625 C 12.503906 -13.082031 11.972656 -13.492188 11.359375 -13.796875 C 10.742188 -14.109375 10.097656 -14.265625 9.421875 -14.265625 Z M 9.421875 -14.265625 "/></g></g><g style="fill:#256ccb;fill-opacity:0.4;"><g transform="translate(51.894179, 29.2736)"><path style="stroke:none" d="M 13.453125 -1.515625 C 12.859375 -0.972656 12.164062 -0.523438 11.375 -0.171875 C 10.59375 0.179688 9.71875 0.359375 8.75 0.359375 C 8.132812 0.359375 7.4375 0.269531 6.65625 0.09375 C 5.875 -0.0820312 5.144531 -0.429688 4.46875 -0.953125 C 3.800781 -1.472656 3.238281 -2.1875 2.78125 -3.09375 C 2.320312 -4.007812 2.09375 -5.195312 2.09375 -6.65625 L 2.09375 -16.953125 L 5.34375 -16.953125 L 5.34375 -6.65625 C 5.34375 -5.925781 5.453125 -5.304688 5.671875 -4.796875 C 5.898438 -4.285156 6.195312 -3.875 6.5625 -3.5625 C 6.925781 -3.257812 7.34375 -3.035156 7.8125 -2.890625 C 8.289062 -2.753906 8.78125 -2.6875 9.28125 -2.6875 C 9.65625 -2.6875 10.082031 -2.753906 10.5625 -2.890625 C 11.050781 -3.035156 11.503906 -3.269531 11.921875 -3.59375 C 12.347656 -3.914062 12.707031 -4.320312 13 -4.8125 C 13.300781 -5.3125 13.453125 -5.914062 13.453125 -6.625 L 13.453125 -16.953125 L 16.890625 -16.953125 L 16.890625 0 L 14.15625 0 Z M 13.453125 -1.515625 "/></g></g><g style="fill:#256ccb;fill-opacity:0.4;"><g transform="translate(70.831771, 29.2736)"><path style="stroke:none" d="M 18.203125 -25.84375 L 18.203125 0 L 15.46875 0 L 14.765625 -1.765625 C 14.078125 -1.085938 13.296875 -0.550781 12.421875 -0.15625 C 11.554688 0.226562 10.554688 0.421875 9.421875 0.421875 C 8.234375 0.421875 7.144531 0.191406 6.15625 -0.265625 C 5.164062 -0.722656 4.304688 -1.351562 3.578125 -2.15625 C 2.847656 -2.957031 2.273438 -3.898438 1.859375 -4.984375 C 1.441406 -6.078125 1.234375 -7.238281 1.234375 -8.46875 C 1.234375 -9.6875 1.441406 -10.835938 1.859375 -11.921875 C 2.273438 -13.015625 2.847656 -13.960938 3.578125 -14.765625 C 4.304688 -15.566406 5.164062 -16.195312 6.15625 -16.65625 C 7.144531 -17.113281 8.234375 -17.34375 9.421875 -17.34375 C 10.597656 -17.34375 11.625 -17.148438 12.5 -16.765625 C 13.375 -16.378906 14.128906 -15.832031 14.765625 -15.125 L 14.765625 -25.84375 Z M 9.703125 -2.625 C 10.410156 -2.625 11.0625 -2.738281 11.65625 -2.96875 C 12.257812 -3.207031 12.789062 -3.566406 13.25 -4.046875 C 13.71875 -4.535156 14.082031 -5.144531 14.34375 -5.875 C 14.601562 -6.601562 14.734375 -7.46875 14.734375 -8.46875 C 14.734375 -9.53125 14.601562 -10.425781 14.34375 -11.15625 C 14.082031 -11.882812 13.71875 -12.476562 13.25 -12.9375 C 12.789062 -13.394531 12.257812 -13.722656 11.65625 -13.921875 C 11.0625 -14.128906 10.410156 -14.234375 9.703125 -14.234375 C 9.015625 -14.234375 8.363281 -14.082031 7.75 -13.78125 C 7.132812 -13.488281 6.601562 -13.082031 6.15625 -12.5625 C 5.707031 -12.050781 5.351562 -11.441406 5.09375 -10.734375 C 4.832031 -10.023438 4.703125 -9.269531 4.703125 -8.46875 C 4.703125 -7.664062 4.832031 -6.910156 5.09375 -6.203125 C 5.351562 -5.492188 5.707031 -4.875 6.15625 -4.34375 C 6.601562 -3.8125 7.132812 -3.390625 7.75 -3.078125 C 8.363281 -2.773438 9.015625 -2.625 9.703125 -2.625 Z M 9.703125 -2.625 "/></g></g><g style="fill:#256ccb;fill-opacity:1;"><g transform="translate(0.697624, 28.55371)"><path style="stroke:none" d="M 13.8125 -3.078125 C 15.175781 -3.078125 16.441406 -3.40625 17.609375 -4.0625 C 18.785156 -4.726562 19.773438 -5.601562 20.578125 -6.6875 L 23.15625 -4.21875 C 22.019531 -2.863281 20.644531 -1.757812 19.03125 -0.90625 C 17.414062 -0.0625 15.675781 0.359375 13.8125 0.359375 C 12.113281 0.359375 10.507812 0.015625 9 -0.671875 C 7.488281 -1.359375 6.175781 -2.285156 5.0625 -3.453125 C 3.957031 -4.617188 3.078125 -5.984375 2.421875 -7.546875 C 1.773438 -9.117188 1.453125 -10.78125 1.453125 -12.53125 C 1.453125 -14.300781 1.773438 -15.960938 2.421875 -17.515625 C 3.078125 -19.078125 3.957031 -20.441406 5.0625 -21.609375 C 6.175781 -22.785156 7.488281 -23.710938 9 -24.390625 C 10.507812 -25.078125 12.113281 -25.421875 13.8125 -25.421875 C 15.394531 -25.421875 16.882812 -25.109375 18.28125 -24.484375 C 19.6875 -23.859375 20.945312 -23.035156 22.0625 -22.015625 L 19.859375 -19.21875 C 19.078125 -20.050781 18.164062 -20.734375 17.125 -21.265625 C 16.09375 -21.796875 14.988281 -22.0625 13.8125 -22.0625 C 12.601562 -22.0625 11.472656 -21.804688 10.421875 -21.296875 C 9.378906 -20.785156 8.46875 -20.09375 7.6875 -19.21875 C 6.90625 -18.351562 6.285156 -17.347656 5.828125 -16.203125 C 5.367188 -15.054688 5.140625 -13.832031 5.140625 -12.53125 C 5.140625 -11.238281 5.367188 -10.019531 5.828125 -8.875 C 6.285156 -7.726562 6.90625 -6.722656 7.6875 -5.859375 C 8.46875 -4.992188 9.378906 -4.3125 10.421875 -3.8125 C 11.472656 -3.320312 12.601562 -3.078125 13.8125 -3.078125 Z M 13.8125 -3.078125 "/></g></g><g style="fill:#256ccb;fill-opacity:1;"><g transform="translate(24.980226, 28.55371)"><path style="stroke:none" d="M 5.59375 -25.84375 L 5.59375 0 L 2.15625 0 L 2.15625 -25.84375 Z M 5.59375 -25.84375 "/></g></g><g style="fill:#256ccb;fill-opacity:1;"><g transform="translate(32.484473, 28.55371)"><path style="stroke:none" d="M 9.421875 0.421875 C 8.234375 0.421875 7.125 0.191406 6.09375 -0.265625 C 5.070312 -0.722656 4.175781 -1.351562 3.40625 -2.15625 C 2.644531 -2.957031 2.039062 -3.898438 1.59375 -4.984375 C 1.144531 -6.078125 0.921875 -7.238281 0.921875 -8.46875 C 0.921875 -9.6875 1.144531 -10.835938 1.59375 -11.921875 C 2.039062 -13.015625 2.644531 -13.960938 3.40625 -14.765625 C 4.175781 -15.566406 5.070312 -16.195312 6.09375 -16.65625 C 7.125 -17.113281 8.234375 -17.34375 9.421875 -17.34375 C 10.578125 -17.34375 11.671875 -17.113281 12.703125 -16.65625 C 13.742188 -16.195312 14.644531 -15.566406 15.40625 -14.765625 C 16.175781 -13.960938 16.785156 -13.015625 17.234375 -11.921875 C 17.691406 -10.835938 17.921875 -9.6875 17.921875 -8.46875 C 17.921875 -7.238281 17.691406 -6.078125 17.234375 -4.984375 C 16.785156 -3.898438 16.175781 -2.957031 15.40625 -2.15625 C 14.644531 -1.351562 13.742188 -0.722656 12.703125 -0.265625 C 11.671875 0.191406 10.578125 0.421875 9.421875 0.421875 Z M 9.421875 -14.265625 C 8.734375 -14.265625 8.082031 -14.109375 7.46875 -13.796875 C 6.851562 -13.492188 6.316406 -13.082031 5.859375 -12.5625 C 5.398438 -12.050781 5.039062 -11.441406 4.78125 -10.734375 C 4.519531 -10.023438 4.390625 -9.269531 4.390625 -8.46875 C 4.390625 -7.664062 4.519531 -6.910156 4.78125 -6.203125 C 5.039062 -5.492188 5.398438 -4.875 5.859375 -4.34375 C 6.316406 -3.8125 6.851562 -3.390625 7.46875 -3.078125 C 8.082031 -2.773438 8.734375 -2.625 9.421875 -2.625 C 10.097656 -2.625 10.742188 -2.773438 11.359375 -3.078125 C 11.972656 -3.390625 12.503906 -3.8125 12.953125 -4.34375 C 13.398438 -4.875 13.753906 -5.492188 14.015625 -6.203125 C 14.273438 -6.910156 14.40625 -7.664062 14.40625 -8.46875 C 14.40625 -9.269531 14.273438 -10.023438 14.015625 -10.734375 C 13.753906 -11.441406 13.398438 -12.050781 12.953125 -12.5625 C 12.503906 -13.082031 11.972656 -13.492188 11.359375 -13.796875 C 10.742188 -14.109375 10.097656 -14.265625 9.421875 -14.265625 Z M 9.421875 -14.265625 "/></g></g><g style="fill:#256ccb;fill-opacity:1;"><g transform="translate(51.174285, 28.55371)"><path style="stroke:none" d="M 13.453125 -1.515625 C 12.859375 -0.972656 12.164062 -0.523438 11.375 -0.171875 C 10.59375 0.179688 9.71875 0.359375 8.75 0.359375 C 8.132812 0.359375 7.4375 0.269531 6.65625 0.09375 C 5.875 -0.0820312 5.144531 -0.429688 4.46875 -0.953125 C 3.800781 -1.472656 3.238281 -2.1875 2.78125 -3.09375 C 2.320312 -4.007812 2.09375 -5.195312 2.09375 -6.65625 L 2.09375 -16.953125 L 5.34375 -16.953125 L 5.34375 -6.65625 C 5.34375 -5.925781 5.453125 -5.304688 5.671875 -4.796875 C 5.898438 -4.285156 6.195312 -3.875 6.5625 -3.5625 C 6.925781 -3.257812 7.34375 -3.035156 7.8125 -2.890625 C 8.289062 -2.753906 8.78125 -2.6875 9.28125 -2.6875 C 9.65625 -2.6875 10.082031 -2.753906 10.5625 -2.890625 C 11.050781 -3.035156 11.503906 -3.269531 11.921875 -3.59375 C 12.347656 -3.914062 12.707031 -4.320312 13 -4.8125 C 13.300781 -5.3125 13.453125 -5.914062 13.453125 -6.625 L 13.453125 -16.953125 L 16.890625 -16.953125 L 16.890625 0 L 14.15625 0 Z M 13.453125 -1.515625 "/></g></g><g style="fill:#256ccb;fill-opacity:1;"><g transform="translate(70.111877, 28.55371)"><path style="stroke:none" d="M 18.203125 -25.84375 L 18.203125 0 L 15.46875 0 L 14.765625 -1.765625 C 14.078125 -1.085938 13.296875 -0.550781 12.421875 -0.15625 C 11.554688 0.226562 10.554688 0.421875 9.421875 0.421875 C 8.234375 0.421875 7.144531 0.191406 6.15625 -0.265625 C 5.164062 -0.722656 4.304688 -1.351562 3.578125 -2.15625 C 2.847656 -2.957031 2.273438 -3.898438 1.859375 -4.984375 C 1.441406 -6.078125 1.234375 -7.238281 1.234375 -8.46875 C 1.234375 -9.6875 1.441406 -10.835938 1.859375 -11.921875 C 2.273438 -13.015625 2.847656 -13.960938 3.578125 -14.765625 C 4.304688 -15.566406 5.164062 -16.195312 6.15625 -16.65625 C 7.144531 -17.113281 8.234375 -17.34375 9.421875 -17.34375 C 10.597656 -17.34375 11.625 -17.148438 12.5 -16.765625 C 13.375 -16.378906 14.128906 -15.832031 14.765625 -15.125 L 14.765625 -25.84375 Z M 9.703125 -2.625 C 10.410156 -2.625 11.0625 -2.738281 11.65625 -2.96875 C 12.257812 -3.207031 12.789062 -3.566406 13.25 -4.046875 C 13.71875 -4.535156 14.082031 -5.144531 14.34375 -5.875 C 14.601562 -6.601562 14.734375 -7.46875 14.734375 -8.46875 C 14.734375 -9.53125 14.601562 -10.425781 14.34375 -11.15625 C 14.082031 -11.882812 13.71875 -12.476562 13.25 -12.9375 C 12.789062 -13.394531 12.257812 -13.722656 11.65625 -13.921875 C 11.0625 -14.128906 10.410156 -14.234375 9.703125 -14.234375 C 9.015625 -14.234375 8.363281 -14.082031 7.75 -13.78125 C 7.132812 -13.488281 6.601562 -13.082031 6.15625 -12.5625 C 5.707031 -12.050781 5.351562 -11.441406 5.09375 -10.734375 C 4.832031 -10.023438 4.703125 -9.269531 4.703125 -8.46875 C 4.703125 -7.664062 4.832031 -6.910156 5.09375 -6.203125 C 5.351562 -5.492188 5.707031 -4.875 6.15625 -4.34375 C 6.601562 -3.8125 7.132812 -3.390625 7.75 -3.078125 C 8.363281 -2.773438 9.015625 -2.625 9.703125 -2.625 Z M 9.703125 -2.625 "/></g></g></g></g></g></svg>