<svg xmlns="http://www.w3.org/2000/svg" xmlns:xlink="http://www.w3.org/1999/xlink" width="300" zoomAndPan="magnify" viewBox="0 0 224.87999 74.999997" height="100" preserveAspectRatio="xMidYMid meet" version="1.2"><defs><clipPath id="0ffab47b94"><path d="M 7.496094 11.113281 L 14.992188 11.113281 L 14.992188 15 L 7.496094 15 Z M 7.496094 11.113281 "/></clipPath><clipPath id="b214a8b604"><path d="M 8 12 L 14.992188 12 L 14.992188 18.609375 L 8 18.609375 Z M 8 12 "/></clipPath><clipPath id="546f6211e1"><rect x="0" width="83" y="0" height="32"/></clipPath></defs><g id="3cf43a6632"><g style="fill:#000000;fill-opacity:1;"><g transform="translate(58.557451, 54.01412)"><path style="stroke:none" d="M 15.484375 -22.453125 L 15.484375 -19.484375 L 5.0625 -19.484375 L 5.0625 -13.359375 L 14.34375 -13.359375 L 14.34375 -10.296875 L 5.0625 -10.296875 L 5.0625 -3.078125 L 15.484375 -3.078125 L 15.484375 0 L 1.78125 0 L 1.78125 -22.453125 Z M 15.484375 -22.453125 "/></g></g><g style="fill:#000000;fill-opacity:1;"><g transform="translate(75.944576, 54.01412)"><path style="stroke:none" d="M 10.734375 0 L 6.65625 0 L 0.375 -15.171875 L 3.703125 -15.171875 L 8.703125 -3.109375 L 13.71875 -15.171875 L 17.046875 -15.171875 Z M 10.734375 0 "/></g></g><g style="fill:#000000;fill-opacity:1;"><g transform="translate(93.426716, 54.01412)"><path style="stroke:none" d="M 16.15625 -15.171875 L 16.15625 0 L 13.5625 0 L 13.078125 -1.734375 C 12.546875 -1.046875 11.867188 -0.519531 11.046875 -0.15625 C 10.222656 0.195312 9.390625 0.375 8.546875 0.375 C 7.492188 0.375 6.507812 0.171875 5.59375 -0.234375 C 4.675781 -0.648438 3.875 -1.21875 3.1875 -1.9375 C 2.5 -2.65625 1.953125 -3.5 1.546875 -4.46875 C 1.148438 -5.4375 0.953125 -6.46875 0.953125 -7.5625 C 0.953125 -8.664062 1.148438 -9.703125 1.546875 -10.671875 C 1.953125 -11.640625 2.5 -12.484375 3.1875 -13.203125 C 3.875 -13.921875 4.675781 -14.484375 5.59375 -14.890625 C 6.507812 -15.304688 7.492188 -15.515625 8.546875 -15.515625 C 9.390625 -15.515625 10.203125 -15.347656 10.984375 -15.015625 C 11.765625 -14.691406 12.460938 -14.179688 13.078125 -13.484375 L 13.5625 -15.171875 Z M 8.546875 -2.34375 C 9.160156 -2.34375 9.738281 -2.476562 10.28125 -2.75 C 10.832031 -3.03125 11.3125 -3.40625 11.71875 -3.875 C 12.125 -4.351562 12.441406 -4.910156 12.671875 -5.546875 C 12.898438 -6.179688 13.015625 -6.851562 13.015625 -7.5625 C 13.015625 -8.28125 12.898438 -8.957031 12.671875 -9.59375 C 12.441406 -10.226562 12.125 -10.78125 11.71875 -11.25 C 11.3125 -11.726562 10.832031 -12.101562 10.28125 -12.375 C 9.738281 -12.65625 9.160156 -12.796875 8.546875 -12.796875 C 7.941406 -12.796875 7.363281 -12.65625 6.8125 -12.375 C 6.257812 -12.101562 5.78125 -11.726562 5.375 -11.25 C 4.976562 -10.78125 4.660156 -10.226562 4.421875 -9.59375 C 4.191406 -8.957031 4.078125 -8.28125 4.078125 -7.5625 C 4.078125 -6.851562 4.191406 -6.179688 4.421875 -5.546875 C 4.660156 -4.910156 4.976562 -4.351562 5.375 -3.875 C 5.78125 -3.40625 6.257812 -3.03125 6.8125 -2.75 C 7.363281 -2.476562 7.941406 -2.34375 8.546875 -2.34375 Z M 8.546875 -2.34375 "/></g></g><g style="fill:#000000;fill-opacity:1;"><g transform="translate(110.940528, 54.01412)"><path style="stroke:none" d="M 5 -23.125 L 5 0 L 1.9375 0 L 1.9375 -23.125 Z M 5 -23.125 "/></g></g><g style="fill:#000000;fill-opacity:1;"><g transform="translate(117.654684, 54.01412)"><path style="stroke:none" d="M 12.03125 -1.359375 C 11.507812 -0.878906 10.894531 -0.476562 10.1875 -0.15625 C 9.476562 0.15625 8.691406 0.3125 7.828125 0.3125 C 7.273438 0.3125 6.648438 0.234375 5.953125 0.078125 C 5.253906 -0.078125 4.601562 -0.382812 4 -0.84375 C 3.40625 -1.3125 2.898438 -1.953125 2.484375 -2.765625 C 2.078125 -3.578125 1.875 -4.640625 1.875 -5.953125 L 1.875 -15.171875 L 4.78125 -15.171875 L 4.78125 -5.953125 C 4.78125 -5.296875 4.878906 -4.738281 5.078125 -4.28125 C 5.285156 -3.832031 5.550781 -3.46875 5.875 -3.1875 C 6.195312 -2.914062 6.570312 -2.71875 7 -2.59375 C 7.425781 -2.46875 7.859375 -2.40625 8.296875 -2.40625 C 8.640625 -2.40625 9.023438 -2.46875 9.453125 -2.59375 C 9.890625 -2.71875 10.296875 -2.921875 10.671875 -3.203125 C 11.054688 -3.492188 11.378906 -3.859375 11.640625 -4.296875 C 11.898438 -4.742188 12.03125 -5.285156 12.03125 -5.921875 L 12.03125 -15.171875 L 15.109375 -15.171875 L 15.109375 0 L 12.671875 0 Z M 12.03125 -1.359375 "/></g></g><g clip-rule="nonzero" clip-path="url(#0ffab47b94)"><path style=" stroke:none;fill-rule:nonzero;fill:#0f172a;fill-opacity:1;" d="M 14.691406 14.484375 L 11.414062 11.207031 C 11.320312 11.113281 11.167969 11.113281 11.074219 11.207031 L 9.960938 12.320312 L 9.960938 12.125 C 9.960938 11.992188 9.851562 11.882812 9.71875 11.882812 L 8.988281 11.882812 C 8.855469 11.882812 8.746094 11.992188 8.746094 12.125 L 8.746094 13.535156 L 7.796875 14.484375 C 7.703125 14.578125 7.703125 14.730469 7.796875 14.824219 C 7.894531 14.921875 8.046875 14.921875 8.140625 14.824219 L 11.242188 11.722656 L 14.347656 14.824219 C 14.394531 14.875 14.457031 14.898438 14.519531 14.898438 C 14.582031 14.898438 14.640625 14.875 14.691406 14.824219 C 14.785156 14.730469 14.785156 14.578125 14.691406 14.484375 Z M 9.230469 12.367188 L 9.476562 12.367188 L 9.476562 12.804688 L 9.230469 13.050781 Z M 9.230469 12.367188 "/></g><g clip-rule="nonzero" clip-path="url(#b214a8b604)"><path style=" stroke:none;fill-rule:nonzero;fill:#0f172a;fill-opacity:1;" d="M 11.414062 12.40625 C 11.320312 12.3125 11.167969 12.3125 11.074219 12.40625 L 8.371094 15.105469 C 8.328125 15.152344 8.300781 15.214844 8.300781 15.277344 L 8.300781 18.367188 C 8.300781 18.5 8.410156 18.609375 8.542969 18.609375 L 10.523438 18.609375 C 10.65625 18.609375 10.765625 18.5 10.765625 18.367188 L 10.765625 16.863281 L 11.722656 16.863281 L 11.722656 18.367188 C 11.722656 18.5 11.832031 18.609375 11.964844 18.609375 L 13.945312 18.609375 C 14.078125 18.609375 14.1875 18.5 14.1875 18.367188 L 14.1875 15.277344 C 14.1875 15.214844 14.160156 15.152344 14.113281 15.105469 Z M 13.699219 18.125 L 12.207031 18.125 L 12.207031 16.621094 C 12.207031 16.484375 12.097656 16.375 11.964844 16.375 L 10.523438 16.375 C 10.390625 16.375 10.28125 16.484375 10.28125 16.621094 L 10.28125 18.125 L 8.789062 18.125 L 8.789062 15.378906 L 11.242188 12.921875 L 13.699219 15.378906 Z M 13.699219 18.125 "/></g><g transform="matrix(1,0,0,1,137,29)"><g clip-path="url(#546f6211e1)"><g style="fill:#256ccb;fill-opacity:0.4;"><g transform="translate(1.764432, 25.657991)"><path style="stroke:none" d="M 12.359375 -2.75 C 13.578125 -2.75 14.707031 -3.046875 15.75 -3.640625 C 16.800781 -4.234375 17.6875 -5.015625 18.40625 -5.984375 L 20.71875 -3.765625 C 19.695312 -2.566406 18.460938 -1.585938 17.015625 -0.828125 C 15.578125 -0.0664062 14.023438 0.3125 12.359375 0.3125 C 10.835938 0.3125 9.398438 0.0078125 8.046875 -0.59375 C 6.691406 -1.207031 5.519531 -2.035156 4.53125 -3.078125 C 3.539062 -4.128906 2.753906 -5.359375 2.171875 -6.765625 C 1.585938 -8.171875 1.296875 -9.65625 1.296875 -11.21875 C 1.296875 -12.800781 1.585938 -14.285156 2.171875 -15.671875 C 2.753906 -17.066406 3.539062 -18.285156 4.53125 -19.328125 C 5.519531 -20.378906 6.691406 -21.207031 8.046875 -21.8125 C 9.398438 -22.425781 10.835938 -22.734375 12.359375 -22.734375 C 13.765625 -22.734375 15.097656 -22.453125 16.359375 -21.890625 C 17.617188 -21.335938 18.742188 -20.609375 19.734375 -19.703125 L 17.765625 -17.203125 C 17.066406 -17.941406 16.253906 -18.546875 15.328125 -19.015625 C 14.398438 -19.492188 13.410156 -19.734375 12.359375 -19.734375 C 11.273438 -19.734375 10.265625 -19.503906 9.328125 -19.046875 C 8.390625 -18.597656 7.570312 -17.984375 6.875 -17.203125 C 6.175781 -16.421875 5.617188 -15.515625 5.203125 -14.484375 C 4.796875 -13.460938 4.59375 -12.375 4.59375 -11.21875 C 4.59375 -10.050781 4.796875 -8.953125 5.203125 -7.921875 C 5.617188 -6.898438 6.175781 -6.003906 6.875 -5.234375 C 7.570312 -4.460938 8.390625 -3.851562 9.328125 -3.40625 C 10.265625 -2.96875 11.273438 -2.75 12.359375 -2.75 Z M 12.359375 -2.75 "/></g></g><g style="fill:#256ccb;fill-opacity:0.4;"><g transform="translate(23.489914, 25.657991)"><path style="stroke:none" d="M 5 -23.125 L 5 0 L 1.9375 0 L 1.9375 -23.125 Z M 5 -23.125 "/></g></g><g style="fill:#256ccb;fill-opacity:0.4;"><g transform="translate(30.203914, 25.657991)"><path style="stroke:none" d="M 8.421875 0.375 C 7.367188 0.375 6.378906 0.171875 5.453125 -0.234375 C 4.535156 -0.648438 3.734375 -1.21875 3.046875 -1.9375 C 2.367188 -2.65625 1.828125 -3.5 1.421875 -4.46875 C 1.023438 -5.4375 0.828125 -6.46875 0.828125 -7.5625 C 0.828125 -8.664062 1.023438 -9.703125 1.421875 -10.671875 C 1.828125 -11.640625 2.367188 -12.484375 3.046875 -13.203125 C 3.734375 -13.921875 4.535156 -14.484375 5.453125 -14.890625 C 6.378906 -15.304688 7.367188 -15.515625 8.421875 -15.515625 C 9.460938 -15.515625 10.445312 -15.304688 11.375 -14.890625 C 12.300781 -14.484375 13.109375 -13.921875 13.796875 -13.203125 C 14.484375 -12.484375 15.023438 -11.640625 15.421875 -10.671875 C 15.828125 -9.703125 16.03125 -8.664062 16.03125 -7.5625 C 16.03125 -6.46875 15.828125 -5.4375 15.421875 -4.46875 C 15.023438 -3.5 14.484375 -2.65625 13.796875 -1.9375 C 13.109375 -1.21875 12.300781 -0.648438 11.375 -0.234375 C 10.445312 0.171875 9.460938 0.375 8.421875 0.375 Z M 8.421875 -12.765625 C 7.804688 -12.765625 7.222656 -12.625 6.671875 -12.34375 C 6.128906 -12.070312 5.648438 -11.703125 5.234375 -11.234375 C 4.828125 -10.773438 4.503906 -10.226562 4.265625 -9.59375 C 4.035156 -8.957031 3.921875 -8.28125 3.921875 -7.5625 C 3.921875 -6.851562 4.035156 -6.179688 4.265625 -5.546875 C 4.503906 -4.910156 4.828125 -4.351562 5.234375 -3.875 C 5.648438 -3.40625 6.128906 -3.03125 6.671875 -2.75 C 7.222656 -2.476562 7.804688 -2.34375 8.421875 -2.34375 C 9.035156 -2.34375 9.613281 -2.476562 10.15625 -2.75 C 10.707031 -3.03125 11.179688 -3.40625 11.578125 -3.875 C 11.984375 -4.351562 12.300781 -4.910156 12.53125 -5.546875 C 12.769531 -6.179688 12.890625 -6.851562 12.890625 -7.5625 C 12.890625 -8.28125 12.769531 -8.957031 12.53125 -9.59375 C 12.300781 -10.226562 11.984375 -10.773438 11.578125 -11.234375 C 11.179688 -11.703125 10.707031 -12.070312 10.15625 -12.34375 C 9.613281 -12.625 9.035156 -12.765625 8.421875 -12.765625 Z M 8.421875 -12.765625 "/></g></g><g style="fill:#256ccb;fill-opacity:0.4;"><g transform="translate(46.925565, 25.657991)"><path style="stroke:none" d="M 12.03125 -1.359375 C 11.507812 -0.878906 10.894531 -0.476562 10.1875 -0.15625 C 9.476562 0.15625 8.691406 0.3125 7.828125 0.3125 C 7.273438 0.3125 6.648438 0.234375 5.953125 0.078125 C 5.253906 -0.078125 4.601562 -0.382812 4 -0.84375 C 3.40625 -1.3125 2.898438 -1.953125 2.484375 -2.765625 C 2.078125 -3.578125 1.875 -4.640625 1.875 -5.953125 L 1.875 -15.171875 L 4.78125 -15.171875 L 4.78125 -5.953125 C 4.78125 -5.296875 4.878906 -4.738281 5.078125 -4.28125 C 5.285156 -3.832031 5.550781 -3.46875 5.875 -3.1875 C 6.195312 -2.914062 6.570312 -2.71875 7 -2.59375 C 7.425781 -2.46875 7.859375 -2.40625 8.296875 -2.40625 C 8.640625 -2.40625 9.023438 -2.46875 9.453125 -2.59375 C 9.890625 -2.71875 10.296875 -2.921875 10.671875 -3.203125 C 11.054688 -3.492188 11.378906 -3.859375 11.640625 -4.296875 C 11.898438 -4.742188 12.03125 -5.285156 12.03125 -5.921875 L 12.03125 -15.171875 L 15.109375 -15.171875 L 15.109375 0 L 12.671875 0 Z M 12.03125 -1.359375 "/></g></g><g style="fill:#256ccb;fill-opacity:0.4;"><g transform="translate(63.868902, 25.657991)"><path style="stroke:none" d="M 16.28125 -23.125 L 16.28125 0 L 13.84375 0 L 13.203125 -1.578125 C 12.585938 -0.972656 11.890625 -0.492188 11.109375 -0.140625 C 10.328125 0.203125 9.429688 0.375 8.421875 0.375 C 7.367188 0.375 6.398438 0.171875 5.515625 -0.234375 C 4.628906 -0.648438 3.859375 -1.21875 3.203125 -1.9375 C 2.546875 -2.65625 2.03125 -3.5 1.65625 -4.46875 C 1.289062 -5.4375 1.109375 -6.46875 1.109375 -7.5625 C 1.109375 -8.664062 1.289062 -9.703125 1.65625 -10.671875 C 2.03125 -11.640625 2.546875 -12.484375 3.203125 -13.203125 C 3.859375 -13.921875 4.628906 -14.484375 5.515625 -14.890625 C 6.398438 -15.304688 7.367188 -15.515625 8.421875 -15.515625 C 9.484375 -15.515625 10.40625 -15.335938 11.1875 -14.984375 C 11.96875 -14.640625 12.640625 -14.15625 13.203125 -13.53125 L 13.203125 -23.125 Z M 8.671875 -2.34375 C 9.304688 -2.34375 9.894531 -2.445312 10.4375 -2.65625 C 10.976562 -2.875 11.453125 -3.195312 11.859375 -3.625 C 12.273438 -4.0625 12.597656 -4.601562 12.828125 -5.25 C 13.054688 -5.90625 13.171875 -6.675781 13.171875 -7.5625 C 13.171875 -8.519531 13.054688 -9.320312 12.828125 -9.96875 C 12.597656 -10.625 12.273438 -11.15625 11.859375 -11.5625 C 11.453125 -11.976562 10.976562 -12.273438 10.4375 -12.453125 C 9.894531 -12.640625 9.304688 -12.734375 8.671875 -12.734375 C 8.066406 -12.734375 7.488281 -12.597656 6.9375 -12.328125 C 6.382812 -12.066406 5.90625 -11.703125 5.5 -11.234375 C 5.101562 -10.773438 4.789062 -10.226562 4.5625 -9.59375 C 4.332031 -8.957031 4.21875 -8.28125 4.21875 -7.5625 C 4.21875 -6.851562 4.332031 -6.179688 4.5625 -5.546875 C 4.789062 -4.910156 5.101562 -4.351562 5.5 -3.875 C 5.90625 -3.40625 6.382812 -3.03125 6.9375 -2.75 C 7.488281 -2.476562 8.066406 -2.34375 8.671875 -2.34375 Z M 8.671875 -2.34375 "/></g></g><g style="fill:#256ccb;fill-opacity:1;"><g transform="translate(1.120347, 25.013909)"><path style="stroke:none" d="M 12.359375 -2.75 C 13.578125 -2.75 14.707031 -3.046875 15.75 -3.640625 C 16.800781 -4.234375 17.6875 -5.015625 18.40625 -5.984375 L 20.71875 -3.765625 C 19.695312 -2.566406 18.460938 -1.585938 17.015625 -0.828125 C 15.578125 -0.0664062 14.023438 0.3125 12.359375 0.3125 C 10.835938 0.3125 9.398438 0.0078125 8.046875 -0.59375 C 6.691406 -1.207031 5.519531 -2.035156 4.53125 -3.078125 C 3.539062 -4.128906 2.753906 -5.359375 2.171875 -6.765625 C 1.585938 -8.171875 1.296875 -9.65625 1.296875 -11.21875 C 1.296875 -12.800781 1.585938 -14.285156 2.171875 -15.671875 C 2.753906 -17.066406 3.539062 -18.285156 4.53125 -19.328125 C 5.519531 -20.378906 6.691406 -21.207031 8.046875 -21.8125 C 9.398438 -22.425781 10.835938 -22.734375 12.359375 -22.734375 C 13.765625 -22.734375 15.097656 -22.453125 16.359375 -21.890625 C 17.617188 -21.335938 18.742188 -20.609375 19.734375 -19.703125 L 17.765625 -17.203125 C 17.066406 -17.941406 16.253906 -18.546875 15.328125 -19.015625 C 14.398438 -19.492188 13.410156 -19.734375 12.359375 -19.734375 C 11.273438 -19.734375 10.265625 -19.503906 9.328125 -19.046875 C 8.390625 -18.597656 7.570312 -17.984375 6.875 -17.203125 C 6.175781 -16.421875 5.617188 -15.515625 5.203125 -14.484375 C 4.796875 -13.460938 4.59375 -12.375 4.59375 -11.21875 C 4.59375 -10.050781 4.796875 -8.953125 5.203125 -7.921875 C 5.617188 -6.898438 6.175781 -6.003906 6.875 -5.234375 C 7.570312 -4.460938 8.390625 -3.851562 9.328125 -3.40625 C 10.265625 -2.96875 11.273438 -2.75 12.359375 -2.75 Z M 12.359375 -2.75 "/></g></g><g style="fill:#256ccb;fill-opacity:1;"><g transform="translate(22.845829, 25.013909)"><path style="stroke:none" d="M 5 -23.125 L 5 0 L 1.9375 0 L 1.9375 -23.125 Z M 5 -23.125 "/></g></g><g style="fill:#256ccb;fill-opacity:1;"><g transform="translate(29.559829, 25.013909)"><path style="stroke:none" d="M 8.421875 0.375 C 7.367188 0.375 6.378906 0.171875 5.453125 -0.234375 C 4.535156 -0.648438 3.734375 -1.21875 3.046875 -1.9375 C 2.367188 -2.65625 1.828125 -3.5 1.421875 -4.46875 C 1.023438 -5.4375 0.828125 -6.46875 0.828125 -7.5625 C 0.828125 -8.664062 1.023438 -9.703125 1.421875 -10.671875 C 1.828125 -11.640625 2.367188 -12.484375 3.046875 -13.203125 C 3.734375 -13.921875 4.535156 -14.484375 5.453125 -14.890625 C 6.378906 -15.304688 7.367188 -15.515625 8.421875 -15.515625 C 9.460938 -15.515625 10.445312 -15.304688 11.375 -14.890625 C 12.300781 -14.484375 13.109375 -13.921875 13.796875 -13.203125 C 14.484375 -12.484375 15.023438 -11.640625 15.421875 -10.671875 C 15.828125 -9.703125 16.03125 -8.664062 16.03125 -7.5625 C 16.03125 -6.46875 15.828125 -5.4375 15.421875 -4.46875 C 15.023438 -3.5 14.484375 -2.65625 13.796875 -1.9375 C 13.109375 -1.21875 12.300781 -0.648438 11.375 -0.234375 C 10.445312 0.171875 9.460938 0.375 8.421875 0.375 Z M 8.421875 -12.765625 C 7.804688 -12.765625 7.222656 -12.625 6.671875 -12.34375 C 6.128906 -12.070312 5.648438 -11.703125 5.234375 -11.234375 C 4.828125 -10.773438 4.503906 -10.226562 4.265625 -9.59375 C 4.035156 -8.957031 3.921875 -8.28125 3.921875 -7.5625 C 3.921875 -6.851562 4.035156 -6.179688 4.265625 -5.546875 C 4.503906 -4.910156 4.828125 -4.351562 5.234375 -3.875 C 5.648438 -3.40625 6.128906 -3.03125 6.671875 -2.75 C 7.222656 -2.476562 7.804688 -2.34375 8.421875 -2.34375 C 9.035156 -2.34375 9.613281 -2.476562 10.15625 -2.75 C 10.707031 -3.03125 11.179688 -3.40625 11.578125 -3.875 C 11.984375 -4.351562 12.300781 -4.910156 12.53125 -5.546875 C 12.769531 -6.179688 12.890625 -6.851562 12.890625 -7.5625 C 12.890625 -8.28125 12.769531 -8.957031 12.53125 -9.59375 C 12.300781 -10.226562 11.984375 -10.773438 11.578125 -11.234375 C 11.179688 -11.703125 10.707031 -12.070312 10.15625 -12.34375 C 9.613281 -12.625 9.035156 -12.765625 8.421875 -12.765625 Z M 8.421875 -12.765625 "/></g></g><g style="fill:#256ccb;fill-opacity:1;"><g transform="translate(46.28148, 25.013909)"><path style="stroke:none" d="M 12.03125 -1.359375 C 11.507812 -0.878906 10.894531 -0.476562 10.1875 -0.15625 C 9.476562 0.15625 8.691406 0.3125 7.828125 0.3125 C 7.273438 0.3125 6.648438 0.234375 5.953125 0.078125 C 5.253906 -0.078125 4.601562 -0.382812 4 -0.84375 C 3.40625 -1.3125 2.898438 -1.953125 2.484375 -2.765625 C 2.078125 -3.578125 1.875 -4.640625 1.875 -5.953125 L 1.875 -15.171875 L 4.78125 -15.171875 L 4.78125 -5.953125 C 4.78125 -5.296875 4.878906 -4.738281 5.078125 -4.28125 C 5.285156 -3.832031 5.550781 -3.46875 5.875 -3.1875 C 6.195312 -2.914062 6.570312 -2.71875 7 -2.59375 C 7.425781 -2.46875 7.859375 -2.40625 8.296875 -2.40625 C 8.640625 -2.40625 9.023438 -2.46875 9.453125 -2.59375 C 9.890625 -2.71875 10.296875 -2.921875 10.671875 -3.203125 C 11.054688 -3.492188 11.378906 -3.859375 11.640625 -4.296875 C 11.898438 -4.742188 12.03125 -5.285156 12.03125 -5.921875 L 12.03125 -15.171875 L 15.109375 -15.171875 L 15.109375 0 L 12.671875 0 Z M 12.03125 -1.359375 "/></g></g><g style="fill:#256ccb;fill-opacity:1;"><g transform="translate(63.224817, 25.013909)"><path style="stroke:none" d="M 16.28125 -23.125 L 16.28125 0 L 13.84375 0 L 13.203125 -1.578125 C 12.585938 -0.972656 11.890625 -0.492188 11.109375 -0.140625 C 10.328125 0.203125 9.429688 0.375 8.421875 0.375 C 7.367188 0.375 6.398438 0.171875 5.515625 -0.234375 C 4.628906 -0.648438 3.859375 -1.21875 3.203125 -1.9375 C 2.546875 -2.65625 2.03125 -3.5 1.65625 -4.46875 C 1.289062 -5.4375 1.109375 -6.46875 1.109375 -7.5625 C 1.109375 -8.664062 1.289062 -9.703125 1.65625 -10.671875 C 2.03125 -11.640625 2.546875 -12.484375 3.203125 -13.203125 C 3.859375 -13.921875 4.628906 -14.484375 5.515625 -14.890625 C 6.398438 -15.304688 7.367188 -15.515625 8.421875 -15.515625 C 9.484375 -15.515625 10.40625 -15.335938 11.1875 -14.984375 C 11.96875 -14.640625 12.640625 -14.15625 13.203125 -13.53125 L 13.203125 -23.125 Z M 8.671875 -2.34375 C 9.304688 -2.34375 9.894531 -2.445312 10.4375 -2.65625 C 10.976562 -2.875 11.453125 -3.195312 11.859375 -3.625 C 12.273438 -4.0625 12.597656 -4.601562 12.828125 -5.25 C 13.054688 -5.90625 13.171875 -6.675781 13.171875 -7.5625 C 13.171875 -8.519531 13.054688 -9.320312 12.828125 -9.96875 C 12.597656 -10.625 12.273438 -11.15625 11.859375 -11.5625 C 11.453125 -11.976562 10.976562 -12.273438 10.4375 -12.453125 C 9.894531 -12.640625 9.304688 -12.734375 8.671875 -12.734375 C 8.066406 -12.734375 7.488281 -12.597656 6.9375 -12.328125 C 6.382812 -12.066406 5.90625 -11.703125 5.5 -11.234375 C 5.101562 -10.773438 4.789062 -10.226562 4.5625 -9.59375 C 4.332031 -8.957031 4.21875 -8.28125 4.21875 -7.5625 C 4.21875 -6.851562 4.332031 -6.179688 4.5625 -5.546875 C 4.789062 -4.910156 5.101562 -4.351562 5.5 -3.875 C 5.90625 -3.40625 6.382812 -3.03125 6.9375 -2.75 C 7.488281 -2.476562 8.066406 -2.34375 8.671875 -2.34375 Z M 8.671875 -2.34375 "/></g></g></g></g></g></svg>